<svg width="880" height="520" viewBox="0 0 880 520" fill="none" xmlns="http://www.w3.org/2000/svg" font-family="&#39;Pretendard&#39;, -apple-system, &#39;Apple SD Gothic Neo&#39;, sans-serif">
  <rect width="880" height="520" fill="#F4F6FA"></rect>
  <rect x="40" y="32" width="800" height="456" rx="16" fill="#FFFFFF" stroke="#D4D7E3"></rect>
  <path d="M40 48 a16 16 0 0 1 16 -16 H824 a16 16 0 0 1 16 16 V72 H40 Z" fill="#F7FBFF" stroke="#D4D7E3"></path>
  <circle cx="68" cy="52" r="5" fill="#E0635A"></circle><circle cx="86" cy="52" r="5" fill="#E8B84B"></circle><circle cx="104" cy="52" r="5" fill="#4FB477"></circle>
  <rect x="150" y="44" width="430" height="16" rx="8" fill="#EDEFF4"></rect>
  <text x="166" y="56" font-size="11" fill="#959CB6" font-family="monospace">sso.econovation.kr / clients / new</text>

  
  <rect x="40" y="72" width="800" height="416" fill="#0C1421" opacity="0.42"></rect>

  
  <rect x="248" y="150" width="384" height="252" rx="16" fill="#FFFFFF"></rect>
  
  <circle cx="440" cy="206" r="26" fill="#E8F4ED"></circle>
  <path d="M428 206 l9 9 l16 -17" stroke="#1F8A5B" stroke-width="3.4" fill="none" stroke-linecap="round" stroke-linejoin="round"></path>

  <text x="440" y="264" font-size="19" font-weight="700" fill="#0C1421" text-anchor="middle">클라이언트가 등록되었습니다</text>
  <text x="440" y="289" font-size="13" fill="#5D6580" text-anchor="middle">발급된 clientId를 서비스 환경 변수에 등록하세요.</text>

  
  <rect x="280" y="306" width="320" height="40" rx="9" fill="#F4F6FA" stroke="#D4D7E3"></rect>
  <text x="296" y="331" font-size="12.5" font-family="monospace" fill="#0C1421">f9e8d7c6-2b41-4c97-8d10-3a5b7c9e1f24</text>
  <rect x="568" y="314" width="24" height="24" rx="6" fill="#FFFFFF" stroke="#D4D7E3"></rect>
  <rect x="575" y="320" width="8" height="9" rx="1.5" fill="none" stroke="#5D6580" stroke-width="1.4"></rect>

  
  <rect x="280" y="358" width="320" height="0" rx="10" fill="none"></rect>
  <rect x="412" y="356" width="188" height="34" rx="9" fill="#162D3A"></rect>
  <text x="506" y="378" font-size="13.5" font-weight="600" fill="#FFFFFF" text-anchor="middle">상세 페이지로 이동</text>
</svg>